<?xml version="1.0" encoding="utf-8"?>
<!-- Generator: Adobe Illustrator 27.5.0, SVG Export Plug-In . SVG Version: 6.00 Build 0)  -->
<svg version="1.1" id="Слой_1" xmlns="http://www.w3.org/2000/svg" xmlns:xlink="http://www.w3.org/1999/xlink" x="0px" y="0px"
	 viewBox="0 0 2000 2000" style="enable-background:new 0 0 2000 2000;" xml:space="preserve">
<rect style="fill:none;" width="2000" height="2000"/>
<path style="fill:#FFEEE9;" d="M1079.327,1645.24c-123.124-1.184-760.036,131.372-811.878-497.083s83.012-782.815,291.012-782.815
	c381.157,0,381.217,243.303,545.999,222c164.783-21.304,531.694-170.892,656,187c91,262-76.621,752.544-188.637,818.823
	C1459.809,1659.442,1079.327,1645.24,1079.327,1645.24z"/>
<g>
	<path style="fill:#FFD9CE;" d="M1420.604,1639.013c0,0,354.108-1.246,360.132-188.895c6.022-187.647-267.896,48.939-267.896,48.939
		s281.965-213.331,169.724-311.309c-112.24-97.977-225.742,280.591-225.742,280.591s113.788-313.923,2.306-313.496
		c-111.481,0.427-73.923,480.674-73.923,480.674L1420.604,1639.013z"/>
	<g>
		<g>
			<path style="fill:#FFFFFF;" d="M1463.613,1166.517l0.178,14.257c0.037,4.753,0.189,9.511,0.051,14.263l-0.287,14.263
				c-0.06,2.377-0.072,4.757-0.172,7.132l-0.326,7.126l-0.652,14.255c-0.09,2.378-0.244,4.751-0.415,7.122l-0.485,7.118
				l-0.972,14.24l-1.233,14.218c-3.449,37.903-8.382,75.662-14.229,113.26c-5.774,37.614-12.578,75.054-19.688,112.42
				c-7.169,37.356-14.878,74.598-22.665,111.813l-6.204-2.83c23.269-30.714,46.302-61.601,68.944-92.766
				c5.716-7.753,11.311-15.59,16.949-23.396c5.658-7.794,11.206-15.663,16.771-23.522l8.331-11.799l8.241-11.861l8.262-11.848
				l8.152-11.922l8.144-11.928l8.019-12.012l8.01-12.018l7.891-12.097l7.89-12.098l7.74-12.192
				c2.568-4.072,5.188-8.113,7.714-12.211l7.565-12.303c2.514-4.106,5.122-8.158,7.56-12.31l7.408-12.4
				c5.008-8.229,9.697-16.641,14.517-24.982l3.585-6.273l3.473-6.334l6.951-12.67l1.752-3.161l1.685-3.196l3.37-6.393l6.742-12.791
				l-6.268,13.03l-3.135,6.519l-1.567,3.259l-1.635,3.226l-6.601,12.871l-3.303,6.437l-3.414,6.376
				c-4.594,8.479-9.06,17.035-13.847,25.41l-7.078,12.622c-2.328,4.227-4.826,8.353-7.231,12.535l-7.324,12.482
				c-2.45,4.156-4.993,8.255-7.485,12.385l-7.514,12.371l-7.664,12.275l-7.692,12.26l-7.854,12.155l-7.862,12.151l-7.988,12.066
				l-7.997,12.062l-8.107,11.986l-8.152,11.957l-8.244,11.892c-5.507,7.92-10.997,15.853-16.597,23.707
				c-5.58,7.867-11.117,15.768-16.774,23.579c-22.543,31.311-45.524,62.298-68.76,93.085l-9.485,12.569l3.282-15.399
				c7.922-37.168,15.624-74.375,23.035-111.633c7.461-37.248,14.412-74.59,20.804-112.021
				c6.298-37.446,11.952-75.005,16.206-112.737l1.618-14.148l1.356-14.175l0.678-7.089c0.236-2.362,0.454-4.727,0.608-7.095
				l1.038-14.204l0.521-7.104c0.163-2.368,0.24-4.74,0.365-7.111l0.688-14.23c0.311-4.742,0.333-9.492,0.47-14.24L1463.613,1166.517
				z"/>
		</g>
	</g>
	<g>
		<g>
			<path style="fill:#FFFFFF;" d="M1746.858,1442.15c-22.865,22.275-48.033,42.225-74.503,60.19l-9.998,6.639
				c-3.344,2.196-6.664,4.436-10.103,6.479l-10.239,6.26c-3.416,2.085-6.811,4.207-10.308,6.15l-10.442,5.915
				c-3.484,1.968-6.963,3.946-10.521,5.773l-10.613,5.599l-5.308,2.8c-1.768,0.937-3.577,1.788-5.364,2.687l-10.786,5.252
				l-5.395,2.624c-1.796,0.879-3.63,1.675-5.443,2.517l-10.909,4.985c-3.637,1.66-7.257,3.356-10.959,4.864l-11.048,4.66
				c-3.683,1.552-7.353,3.132-11.079,4.574c-7.431,2.938-14.832,5.95-22.333,8.697c-29.905,11.246-60.293,21.135-91.075,29.544
				c29.887-11.183,59.667-22.476,89.071-34.625c3.697-1.466,7.332-3.08,10.989-4.639l10.987-4.638
				c3.676-1.512,7.293-3.158,10.923-4.776l10.884-4.859c1.808-0.823,3.64-1.595,5.437-2.438l5.401-2.514l10.804-5.027
				c1.795-0.848,3.611-1.651,5.389-2.536l5.338-2.643l10.676-5.28c1.779-0.879,3.584-1.712,5.343-2.63l5.284-2.741l10.571-5.484
				c3.545-1.789,7.008-3.729,10.476-5.656l10.43-5.744c3.51-1.858,6.918-3.892,10.347-5.89l10.285-6
				c3.461-1.95,6.778-4.129,10.163-6.201l10.142-6.247C1696.213,1480.809,1722.074,1462.252,1746.858,1442.15z"/>
		</g>
	</g>
	<g>
		<g>
			<path style="fill:#FFFFFF;" d="M1559.169,1294.114c0.585,8.777,0.679,17.529,0.599,26.272c-0.051,8.745-0.35,17.477-0.787,26.202
				c-0.45,8.724-1.047,17.44-1.891,26.145c-0.813,8.706-1.803,17.402-3.29,26.073c-0.592-8.777-0.688-17.53-0.606-26.273
				c0.053-8.744,0.35-17.477,0.795-26.201c0.457-8.724,1.053-17.44,1.897-26.145
				C1556.7,1311.482,1557.688,1302.786,1559.169,1294.114z"/>
		</g>
	</g>
	<g>
		<g>
			<path style="fill:#FFFFFF;" d="M1607.727,1218.286c0.586,8.777,0.68,17.529,0.599,26.272c-0.05,8.745-0.349,17.477-0.786,26.202
				c-0.45,8.724-1.047,17.44-1.891,26.145c-0.813,8.706-1.803,17.402-3.29,26.073c-0.592-8.777-0.688-17.53-0.606-26.273
				c0.052-8.744,0.35-17.477,0.795-26.201c0.457-8.724,1.053-17.44,1.896-26.145
				C1605.258,1235.654,1606.246,1226.958,1607.727,1218.286z"/>
		</g>
	</g>
	<g>
		<g>
			<path style="fill:#FFFFFF;" d="M1521.048,1348.483c0.313,8.892,0.134,17.744-0.219,26.581c-0.322,8.841-0.893,17.66-1.601,26.469
				c-0.723,8.808-1.59,17.604-2.703,26.379c-1.084,8.778-2.344,17.541-4.1,26.265c-0.318-8.893-0.143-17.744,0.211-26.582
				c0.324-8.84,0.894-17.66,1.609-26.468c0.728-8.807,1.594-17.603,2.709-26.378
				C1518.04,1365.971,1519.299,1357.207,1521.048,1348.483z"/>
		</g>
	</g>
	<g>
		<g>
			<path style="fill:#FFFFFF;" d="M1723.682,1408.712c-0.647,5.957-1.772,11.775-3.041,17.553
				c-1.289,5.771-2.766,11.489-4.404,17.159c-1.637,5.671-3.442,11.293-5.436,16.86c-2.012,5.563-4.17,11.082-6.811,16.462
				c0.641-5.959,1.764-11.778,3.034-17.555c1.289-5.771,2.766-11.488,4.411-17.157c1.643-5.669,3.448-11.291,5.441-16.858
				C1718.89,1419.614,1721.047,1414.094,1723.682,1408.712z"/>
		</g>
	</g>
	<g>
		<g>
			<path style="fill:#FFFFFF;" d="M1679.73,1428.616c0.227,6.018-0.041,11.968-0.456,17.898c-0.436,5.928-1.065,11.829-1.861,17.708
				c-0.795,5.879-1.764,11.734-2.926,17.563c-1.181,5.826-2.515,11.632-4.345,17.37c-0.233-6.019,0.032-11.97,0.449-17.9
				c0.436-5.927,1.065-11.828,1.868-17.706c0.802-5.878,1.771-11.733,2.933-17.563
				C1676.575,1440.161,1677.906,1434.355,1679.73,1428.616z"/>
		</g>
	</g>
	<g>
		<g>
			<path style="fill:#FFFFFF;" d="M1638.208,1443.49c0.104,6.578-0.309,13.081-0.84,19.568c-0.563,6.481-1.321,12.936-2.245,19.365
				c-0.922,6.431-2.018,12.836-3.307,19.213c-1.318,6.373-2.762,12.729-4.725,19.009c-0.11-6.579,0.299-13.083,0.833-19.569
				c0.564-6.481,1.321-12.936,2.251-19.365c0.93-6.429,2.025-12.834,3.314-19.212
				C1634.812,1456.127,1636.251,1449.771,1638.208,1443.49z"/>
		</g>
	</g>
	<g>
		<g>
			<path style="fill:#FFFFFF;" d="M1589.179,1464.381c-0.149,7.578-0.814,15.074-1.599,22.551c-0.816,7.473-1.825,14.913-3,22.328
				s-2.521,14.803-4.061,22.16c-1.569,7.353-3.263,14.685-5.476,21.935c0.144-7.578,0.806-15.075,1.593-22.552
				c0.816-7.472,1.824-14.913,3.006-22.327s2.527-14.802,4.067-22.158C1585.282,1478.965,1586.972,1471.632,1589.179,1464.381z"/>
		</g>
	</g>
	<g>
		<g>
			<path style="fill:#FFFFFF;" d="M1538.435,1495.821c0.28,6.235,0.066,12.411-0.296,18.568c-0.382,6.154-0.959,12.285-1.702,18.396
				s-1.659,12.2-2.77,18.266c-1.13,6.063-2.411,12.108-4.19,18.092c-0.287-6.236-0.076-12.411,0.288-18.568
				c0.383-6.154,0.959-12.285,1.71-18.396c0.749-6.109,1.665-12.199,2.775-18.265
				C1535.381,1507.852,1536.66,1501.806,1538.435,1495.821z"/>
		</g>
	</g>
	<g>
		<g>
			<path style="fill:#FFFFFF;" d="M1420.786,1232.779c3.64,6.923,6.789,14.025,9.825,21.17c3.007,7.155,5.829,14.377,8.494,21.657
				c2.666,7.279,5.167,14.619,7.484,22.026c2.291,7.417,4.462,14.877,6.141,22.518c-3.646-6.921-6.799-14.022-9.832-21.168
				c-3.007-7.155-5.829-14.377-8.487-21.659c-2.659-7.282-5.161-14.622-7.479-22.028
				C1424.645,1247.877,1422.47,1240.418,1420.786,1232.779z"/>
		</g>
	</g>
	<g>
		<g>
			<path style="fill:#FFFFFF;" d="M1403.646,1323.579c3.873,7.306,7.284,14.786,10.533,22.329c3.277,7.531,6.321,15.151,9.235,22.82
				c2.902,7.673,5.668,15.398,8.202,23.211c2.563,7.803,4.959,15.667,6.891,23.708c-3.878-7.304-7.291-14.783-10.539-22.326
				c-3.275-7.532-6.32-15.151-9.229-22.823c-2.896-7.676-5.662-15.4-8.195-23.214
				C1407.983,1339.481,1405.584,1331.617,1403.646,1323.579z"/>
		</g>
	</g>
	<g>
		<g>
			<path style="fill:#FFFFFF;" d="M1401.96,1418.165c3.065,4.092,5.682,8.396,8.161,12.763c2.462,4.376,4.746,8.835,6.878,13.365
				c2.133,4.53,4.107,9.135,5.905,13.823c1.78,4.695,3.422,9.456,4.609,14.431c-3.072-4.089-5.689-8.392-8.168-12.759
				c-2.461-4.376-4.745-8.835-6.871-13.369c-2.127-4.533-4.102-9.138-5.899-13.825
				C1404.797,1427.897,1403.153,1423.137,1401.96,1418.165z"/>
		</g>
	</g>
</g>
<g>
	<g>
		<g>
			<path style="fill:#FFD7CE;" d="M466.662,323.301c0.86-29.467,0.822-58.992-1.334-88.366c-1.14-14.669-2.805-29.335-5.977-43.66
				c-0.804-3.576-1.715-7.124-2.793-10.612c-1.073-3.488-2.318-6.92-3.855-10.188c-1.553-3.232-3.38-6.417-5.883-8.746
				c-1.237-1.15-2.682-2.032-4.178-2.266c-0.745-0.123-1.498-0.092-2.234,0.087c-0.736,0.195-1.449,0.536-2.126,0.972
				c-1.356,0.885-2.528,2.165-3.546,3.567c-1.021,1.407-1.895,2.954-2.662,4.561c-1.529,3.223-2.661,6.667-3.571,10.167
				c-1.79,7.02-2.684,14.288-3.029,21.563c-0.668,14.572,0.888,29.223,4.026,43.467c6.328,28.509,19.621,55.396,38.372,77.703
				l0.231,0.275l0.139,0.361l40.946,106.778l40.66,106.886l40.405,106.982l40.185,107.065
				c26.73,71.399,53.272,142.868,79.666,214.395l19.718,53.674l9.851,26.839l9.768,26.871c13,35.837,26.115,71.631,38.938,107.534
				c-14.029-35.449-27.766-71.009-41.617-106.525l-10.37-26.645l-10.287-26.676l-20.56-53.357
				c-27.309-71.181-54.469-142.419-81.44-213.727l-40.369-106.996l-40.148-107.079l-39.894-107.175L464.087,323.75l0.369,0.636
				c-18.992-23.022-32.313-50.636-38.497-79.769c-3.092-14.559-4.45-29.515-3.588-44.403c0.451-7.438,1.455-14.87,3.402-22.12
				c0.992-3.618,2.212-7.195,3.889-10.616c0.843-1.707,1.807-3.373,2.971-4.936c1.165-1.556,2.524-3.039,4.276-4.158
				c0.877-0.55,1.848-1.006,2.901-1.267c1.058-0.249,2.182-0.281,3.25-0.088c2.162,0.38,3.964,1.589,5.393,2.941
				c2.875,2.765,4.706,6.156,6.298,9.552c1.558,3.426,2.784,6.958,3.834,10.527c1.052,3.569,1.93,7.178,2.696,10.804
				c3.02,14.519,4.497,29.255,5.453,43.982c0.943,14.735,1.231,29.496,1.149,44.245C467.81,293.832,467.344,308.573,466.662,323.301
				z"/>
		</g>
	</g>
	<g>
		<g>
			<path style="fill:#FFD7CE;" d="M473.786,343.65c7.542-24.172,15.954-48.103,26.004-71.435
				c5.077-11.642,10.566-23.138,17.163-34.135c3.34-5.474,6.882-10.875,11.389-15.747c2.295-2.401,4.721-4.784,8.143-6.452
				c0.846-0.419,1.811-0.745,2.843-0.961c1.03-0.22,2.214-0.245,3.384-0.002c1.173,0.241,2.307,0.794,3.21,1.514
				c0.921,0.717,1.598,1.575,2.146,2.431c1.102,1.731,1.65,3.497,2.078,5.224c0.408,1.73,0.625,3.438,0.744,5.128
				c0.225,3.378,0.087,6.692-0.245,9.959c-0.669,6.534-2.091,12.893-3.943,19.096c-3.726,12.403-9.111,24.231-15.773,35.296
				c-13.285,22.115-32.306,41.079-55.283,53.332l-1.169,0.623l-1.299-0.32c-28.511-7.035-55.553-19.844-79.147-37.304
				c-11.763-8.777-22.668-18.749-32.178-30.02c-4.734-5.651-9.131-11.625-12.826-18.133c-1.841-3.258-3.503-6.654-4.758-10.314
				c-0.624-1.832-1.148-3.73-1.453-5.754c-0.283-2.02-0.42-4.189,0.221-6.558c0.326-1.17,0.891-2.402,1.8-3.454
				c0.897-1.057,2.108-1.852,3.316-2.3c2.455-0.898,4.728-0.739,6.755-0.424c4.072,0.715,7.557,2.285,10.914,3.972
				c6.662,3.458,12.668,7.705,18.457,12.17c11.515,9.012,22.1,18.984,32.337,29.251C436.955,299.01,455.816,320.997,473.786,343.65
				c-19.206-21.605-38.738-42.94-59.647-62.788c-10.439-9.917-21.213-19.515-32.709-28.016c-5.748-4.217-11.676-8.243-17.922-11.316
				c-3.103-1.503-6.351-2.817-9.431-3.277c-1.517-0.231-2.995-0.179-3.942,0.223c-0.932,0.399-1.387,0.954-1.708,2.113
				c-0.298,1.139-0.251,2.667,0.013,4.201c0.263,1.547,0.726,3.139,1.301,4.715c1.159,3.156,2.725,6.26,4.467,9.272
				c3.515,6.026,7.781,11.7,12.39,17.066c9.256,10.731,19.961,20.244,31.423,28.654c22.923,16.881,49.242,29.052,76.834,35.964
				l-2.467,0.302c10.886-5.766,20.939-13.113,29.811-21.71c4.447-4.287,8.605-8.881,12.463-13.72
				c3.862-4.834,7.46-9.89,10.727-15.158c6.524-10.533,11.85-21.861,15.553-33.663c1.826-5.9,3.271-11.925,4.031-17.971
				c0.372-3.019,0.552-6.049,0.416-8.992c-0.071-1.467-0.232-2.912-0.523-4.268c-0.295-1.342-0.709-2.645-1.303-3.597
				c-0.594-0.997-1.244-1.497-1.961-1.668c-0.725-0.199-1.825-0.009-2.976,0.516c-2.331,1.042-4.633,3.066-6.713,5.194
				c-4.18,4.354-7.806,9.472-11.193,14.699c-6.754,10.523-12.477,21.788-17.916,33.158
				C491.991,296.391,482.715,319.961,473.786,343.65z"/>
		</g>
	</g>
	<g>
		<g>
			<path style="fill:#FFD7CE;" d="M484.065,377.361c4.884-6.784,9.803-13.544,14.767-20.273c4.98-6.716,10.034-13.378,15.121-20.016
				c10.188-13.266,20.57-26.39,31.287-39.259c10.744-12.844,21.842-25.415,33.67-37.37c5.935-5.957,12.044-11.775,18.723-17.071
				c3.358-2.632,6.816-5.172,10.771-7.267c2.005-1.015,4.084-1.999,6.772-2.365c1.329-0.145,3.007-0.139,4.682,0.831
				c0.82,0.47,1.516,1.189,1.992,1.935c0.485,0.752,0.757,1.519,0.938,2.239c0.345,1.444,0.346,2.74,0.26,3.956
				c-0.091,1.218-0.284,2.368-0.531,3.482c-0.494,2.227-1.182,4.322-1.948,6.365c-1.544,4.078-3.419,7.936-5.43,11.701
				c-4.038,7.518-8.683,14.62-13.64,21.474c-9.935,13.694-21.111,26.419-33.188,38.226c-12.074,11.81-25.146,22.622-39.115,32.181
				c-13.965,9.553-28.854,17.851-44.572,24.318l-0.385,0.158l-0.426,0.064c-15.99,2.396-32.117,3.939-48.293,4.621
				c-16.176,0.655-32.413,0.414-48.581-1.062c-16.153-1.527-32.261-4.271-47.906-9.058c-7.806-2.436-15.51-5.367-22.815-9.393
				c-3.643-2.031-7.195-4.324-10.414-7.279c-1.596-1.492-3.135-3.123-4.398-5.138c-1.242-1.978-2.306-4.478-2.132-7.359
				c0.091-1.421,0.541-2.848,1.239-4.05c0.7-1.207,1.609-2.182,2.562-2.988c1.919-1.626,4.021-2.567,6.09-3.345
				c4.164-1.476,8.344-2.065,12.481-2.405c8.281-0.616,16.45-0.105,24.52,0.835c16.135,1.961,31.899,5.625,47.429,9.928
				c15.51,4.399,30.766,9.563,45.839,15.167c7.535,2.807,15.023,5.73,22.469,8.751C469.33,370.958,476.717,374.12,484.065,377.361
				c-7.488-2.905-15.007-5.727-22.559-8.447c-7.535-2.764-15.104-5.427-22.711-7.972c-15.213-5.082-30.579-9.694-46.109-13.557
				c-15.507-3.896-31.213-7.133-47.022-8.661c-7.889-0.738-15.836-1.108-23.57-0.382c-3.845,0.375-7.678,1.023-11.071,2.304
				c-1.665,0.651-3.264,1.451-4.388,2.464c-1.166,1.011-1.761,2.093-1.801,3.241c-0.058,1.161,0.445,2.584,1.357,3.956
				c0.892,1.379,2.144,2.69,3.498,3.908c2.746,2.436,6.014,4.493,9.392,6.336c6.809,3.662,14.22,6.41,21.757,8.671
				c15.131,4.464,30.886,6.963,46.7,8.323c31.684,2.762,63.716,0.809,95.261-3.755l-0.811,0.222
				c15.228-6.208,29.73-14.223,43.378-23.497c13.65-9.285,26.456-19.827,38.418-31.248c11.934-11.447,23.016-23.828,32.84-37.106
				c4.891-6.646,9.485-13.517,13.487-20.659c1.983-3.573,3.821-7.225,5.295-10.943c0.732-1.857,1.374-3.734,1.813-5.583
				c0.437-1.809,0.666-3.748,0.384-4.979c-0.067-0.292-0.155-0.523-0.237-0.65c-0.087-0.129-0.132-0.19-0.22-0.242
				c-0.141-0.118-0.668-0.245-1.396-0.163c-1.475,0.155-3.297,0.873-5.006,1.733c-3.47,1.763-6.832,4.122-10.08,6.595
				c-6.492,5.006-12.647,10.594-18.632,16.345c-11.961,11.54-23.226,23.862-34.286,36.352
				c-11.061,12.496-21.818,25.279-32.39,38.217c-5.286,6.469-10.512,12.988-15.722,19.522
				C494.407,364.227,489.221,370.781,484.065,377.361z"/>
		</g>
	</g>
</g>
<g>
	<path style="fill:#FFD7CE;" d="M506.946,1427.275c-48.205-12.332-455.141-284.743-425.993-517.919
		c29.146-233.175,286.984,60.536,286.984,60.536s-149.098-276.896-99.772-378.91c49.325-102.014,250.982-21.763,342.972,343.926
		s80.779,512.545,80.779,512.545L506.946,1427.275z"/>
	<g style="opacity:0.5;">
		<path style="fill:#FFFFFF;" d="M132.52,853.305c36.65,45.808,73.087,91.781,109.473,137.794l54.496,69.083l54.388,69.167
			l54.313,69.227l54.172,69.336l54.138,69.361l54.013,69.459l-7.738,3.924c-19.653-68.166-39.036-136.409-58.485-204.633
			l-29.026-102.379l-28.908-102.412l-28.721-102.466l-28.526-102.521c-18.917-68.376-37.813-136.759-56.284-205.263
			c20.563,67.906,40.699,135.933,60.816,203.966l30.021,102.094l29.83,102.148l29.643,102.202l29.522,102.236
			c19.584,68.186,39.233,136.353,58.613,204.596l6.242,21.982l-13.979-18.059l-53.863-69.575l-53.736-69.673l-53.705-69.697
			l-53.563-69.808l-53.487-69.867l-53.379-69.95C203.267,946.902,167.787,900.187,132.52,853.305z"/>
	</g>
	<g style="opacity:0.5;">
		<path style="fill:#FFFFFF;" d="M244.064,879.649c1.105,10.029,1.902,20.063,2.663,30.099c0.41,5.017,0.674,10.038,1.018,15.056
			c0.342,5.019,0.633,10.038,0.9,15.058c0.542,10.04,1,20.081,1.383,30.125c0.38,10.043,0.699,20.087,0.941,30.134l0.127,5.313
			l-5.287-0.812c-5.803-0.892-11.607-1.781-17.402-2.727c-5.799-0.919-11.592-1.876-17.382-2.856
			c-11.583-1.941-23.147-3.992-34.697-6.141c-5.776-1.069-11.545-2.182-17.312-3.308l-17.279-3.508
			c-11.504-2.446-23.006-4.895-34.439-7.781c11.768,0.765,23.467,1.968,35.164,3.174l17.522,1.969
			c5.834,0.7,11.665,1.413,17.49,2.17c11.651,1.502,23.288,3.103,34.906,4.814c5.811,0.845,11.618,1.714,17.419,2.622
			c5.806,0.879,11.603,1.816,17.399,2.75l-5.159,4.502c-0.165-10.048-0.252-20.097-0.279-30.148
			c-0.023-10.05,0.027-20.102,0.162-30.156c0.065-5.026,0.153-10.054,0.291-15.082c0.141-5.028,0.201-10.055,0.407-15.085
			C242.974,899.773,243.364,889.714,244.064,879.649z"/>
	</g>
	<g style="opacity:0.5;">
		<path style="fill:#FFFFFF;" d="M348.319,987.269c1.546,12.698,2.699,25.413,3.871,38.128c1.072,12.719,2.131,25.438,3.021,38.166
			c0.895,12.727,1.708,25.457,2.428,38.192c0.73,12.733,1.361,25.473,1.945,38.213l0.229,4.997l-4.99-0.312l-19.481-1.219
			l-19.474-1.343c-12.979-0.957-25.956-1.938-38.925-3.076c-12.971-1.094-25.929-2.39-38.888-3.679
			c-12.952-1.41-25.905-2.781-38.834-4.576c13.051-0.227,26.075-0.03,39.103,0.128c13.02,0.277,26.04,0.551,39.048,1.024
			c13.011,0.43,26.013,1.016,39.012,1.626l19.494,1.009l19.487,1.133l-4.761,4.686c-0.546-12.743-1.044-25.487-1.442-38.236
			c-0.409-12.748-0.725-25.501-0.959-38.257c-0.239-12.756-0.31-25.52-0.367-38.283
			C347.879,1012.821,347.903,1000.054,348.319,987.269z"/>
	</g>
	<g style="opacity:0.5;">
		<path style="fill:#FFFFFF;" d="M402.129,599.39c-2.208,9.372-4.849,18.588-7.498,27.801c-2.696,9.196-5.526,18.343-8.473,27.449
			c-2.969,9.097-5.982,18.178-9.154,27.202c-3.137,9.037-6.399,18.028-9.705,27.003l-1.763,4.784l-4.439-2.333l-9.913-5.212
			l-9.867-5.299c-6.557-3.576-13.102-7.176-19.594-10.879c-6.499-3.688-12.967-7.44-19.368-11.32
			c-6.412-3.86-12.792-7.782-19.055-11.935c7.04,2.628,13.962,5.486,20.853,8.406c6.901,2.901,13.736,5.93,20.54,9.021
			c6.811,3.077,13.569,6.258,20.315,9.462l10.086,4.871l10.042,4.959l-6.201,2.45c3.196-9.015,6.435-18.015,9.801-26.969
			c3.33-8.967,6.818-17.877,10.352-26.77c3.556-8.885,7.228-17.728,11.034-26.523C393.975,616.784,397.836,608.009,402.129,599.39z"
			/>
	</g>
	<g style="opacity:0.5;">
		<path style="fill:#FFFFFF;" d="M506.386,767.545c-6.175,12.41-12.727,24.593-19.307,36.759
			c-6.634,12.134-13.31,24.243-20.169,36.241c-6.851,12.004-13.754,23.976-20.788,35.869c-7.003,11.912-14.125,23.754-21.284,35.572
			l-2.992,4.941l-3.991-4.104l-11.514-11.838l-11.446-11.905c-7.592-7.975-15.165-15.969-22.656-24.044
			c-3.76-4.023-7.477-8.089-11.189-12.159c-3.708-4.074-7.456-8.11-11.11-12.237c-7.359-8.205-14.676-16.453-21.799-24.892
			c8.357,7.219,16.522,14.628,24.642,22.081c4.085,3.701,8.077,7.495,12.109,11.249c4.028,3.758,8.052,7.521,12.031,11.327
			c7.989,7.583,15.895,15.247,23.784,22.928l11.773,11.581l11.707,11.648l-6.984,0.838c7.069-11.873,14.175-23.724,21.398-35.503
			c7.193-11.798,14.518-23.518,21.895-35.205c7.369-11.693,14.92-23.276,22.514-34.833
			C490.657,790.335,498.332,778.827,506.386,767.545z"/>
	</g>
</g>
<g>
	<path style="fill:#FFD7CE;" d="M1561.025,1171.956c43.525-24.108,368.445-390.486,281.338-608.735
		s-262.384,131.071-262.384,131.071s74.312-305.58,0.814-391.825s-248.34,42.347-244.964,419.414
		c3.375,377.066,51.321,516.327,51.321,516.327L1561.025,1171.956z"/>
	<g>
		<g style="opacity:0.5;">
			<path style="fill:#FFFFFF;" d="M1778.309,522.014c-22.279,54.27-44.807,108.434-67.395,162.572l-33.977,81.166l-34.102,81.113
				l-34.191,81.075l-34.355,81.004l-34.393,80.988l-34.539,80.926l-8.965,21.004l0.486-22.846
				c1.512-70.927,3.304-141.846,5.026-212.768l2.739-106.378l2.861-106.376l3.058-106.371l3.257-106.367
				c2.277-70.908,4.576-141.816,7.316-212.713c-0.566,70.948-1.574,141.886-2.604,212.824l-1.703,106.402l-1.903,106.398
				l-2.099,106.393l-2.222,106.391c-1.583,70.925-3.099,141.851-4.894,212.771l-8.479-1.842l34.715-80.851l34.859-80.788
				l34.898-80.772l35.062-80.702l35.151-80.663l35.276-80.61C1730.777,629.282,1754.419,575.595,1778.309,522.014z"/>
		</g>
	</g>
	<g>
		<g style="opacity:0.5;">
			<path style="fill:#FFFFFF;" d="M1677.038,575.682c3.219,9.562,6.138,19.196,9.021,28.839c1.47,4.814,2.798,9.663,4.204,14.492
				c1.404,4.831,2.759,9.672,4.092,14.52c2.671,9.693,5.26,19.406,7.775,29.137c2.513,9.731,4.968,19.476,7.346,29.24l-6.129-3.052
				c5.373-2.369,10.744-4.74,16.141-7.057c5.383-2.343,10.782-4.651,16.191-6.937c10.81-4.591,21.663-9.08,32.558-13.477
				c5.444-2.204,10.907-4.367,16.375-6.518l16.456-6.332c11.014-4.123,22.029-8.242,33.222-11.955
				c-10.333,5.681-20.844,10.956-31.356,16.229l-15.832,7.76c-5.296,2.546-10.596,5.08-15.914,7.574
				c-10.633,4.998-21.305,9.904-32.021,14.708c-5.354,2.411-10.718,4.801-16.097,7.154c-5.368,2.38-10.759,4.707-16.149,7.036
				l-4.91,2.121l-1.219-5.173c-2.305-9.781-4.532-19.581-6.701-29.395c-2.168-9.814-4.262-19.646-6.273-29.497
				c-1.009-4.925-1.995-9.856-2.932-14.797c-0.936-4.942-1.948-9.867-2.819-14.825
				C1680.266,595.576,1678.502,585.665,1677.038,575.682z"/>
		</g>
	</g>
	<g>
		<g style="opacity:0.5;">
			<path style="fill:#FFFFFF;" d="M1603.351,706.148c3.633,12.265,6.882,24.613,10.148,36.956
				c3.17,12.365,6.326,24.731,9.316,37.134c2.995,12.402,5.912,24.82,8.736,37.259c2.836,12.436,5.572,24.893,8.265,37.36
				l-5.79-3.331l18.569-6.019l18.606-5.901c12.423-3.874,24.855-7.726,37.335-11.428c12.467-3.745,24.996-7.298,37.523-10.856
				c12.564-3.444,25.117-6.924,37.802-10.002c-12.056,5.003-24.243,9.602-36.419,14.238c-12.212,4.522-24.424,9.048-36.697,13.383
				c-12.26,4.377-24.568,8.606-36.885,12.81l-18.503,6.219l-18.541,6.1l-4.749,1.563l-1.041-4.893
				c-2.654-12.475-5.262-24.959-7.771-37.465c-2.521-12.503-4.949-25.026-7.299-37.567c-2.354-12.539-4.543-25.113-6.719-37.691
				C1607.159,731.419,1605.063,718.825,1603.351,706.148z"/>
		</g>
	</g>
	<g>
		<g style="opacity:0.5;">
			<path style="fill:#FFFFFF;" d="M1453.3,344.445c6.331,7.254,12.284,14.769,18.23,22.288c5.903,7.548,11.69,15.177,17.376,22.875
				c5.665,7.712,11.291,15.452,16.778,23.287c5.519,7.814,10.926,15.703,16.297,23.618l-6.62-0.804l8.464-7.335l8.528-7.261
				c5.718-4.805,11.453-9.589,17.266-14.288c5.802-4.71,11.65-9.367,17.595-13.917c5.93-4.566,11.905-9.081,18.054-13.402
				c-5.012,5.6-10.194,11.006-15.422,16.361c-5.215,5.371-10.524,10.635-15.881,15.846c-5.347,5.223-10.77,10.359-16.21,15.476
				l-8.21,7.62l-8.273,7.547l-3.706,3.379l-2.913-4.184c-5.467-7.849-10.896-15.724-16.213-23.676
				c-5.35-7.93-10.559-15.955-15.73-24.007c-5.15-8.066-10.199-16.202-15.132-24.418
				C1462.688,361.205,1457.805,352.955,1453.3,344.445z"/>
		</g>
	</g>
	<g>
		<g style="opacity:0.5;">
			<path style="fill:#FFFFFF;" d="M1394.904,533.483c10.643,8.881,20.977,18.078,31.287,27.297
				c10.267,9.264,20.499,18.563,30.583,28.016c10.09,9.445,20.138,18.934,30.077,28.532c9.966,9.573,19.835,19.244,29.674,28.946
				l-6.97,0.953L1517.94,633l8.466-14.18c5.692-9.425,11.406-18.838,17.221-28.193c2.89-4.688,5.832-9.345,8.779-13.998
				c2.953-4.651,5.857-9.33,8.875-13.943c5.975-9.262,12.002-18.494,18.264-27.59c-4.76,9.964-9.755,19.793-14.803,29.591
				c-2.493,4.917-5.1,9.768-7.658,14.647c-2.564,4.876-5.133,9.749-7.755,14.591c-5.208,9.706-10.516,19.353-15.847,28.988
				l-8.067,14.41l-8.149,14.363l-2.825,4.979l-4.145-4.025c-9.912-9.627-19.794-19.285-29.579-29.041
				c-9.812-9.73-19.515-19.571-29.176-29.454c-9.668-9.877-19.186-19.906-28.67-29.971
				C1413.431,554.064,1404.014,543.931,1394.904,533.483z"/>
		</g>
	</g>
</g>
<path style="fill:#FFCFC2;" d="M562.56,1206.646c0,0-123.091-134.898-228.44-55.543c-105.35,79.356,19.674,134.08-2.576,172.633
	c-22.251,38.553-128.343-42.5-161.336,30.842c-50.549,112.363,82.646,204.667,224.78,201.698s176.252,18.619,176.252,18.619
	L562.56,1206.646z"/>
<path style="fill:#FFE1E3;" d="M538.93,1338.762c0,0-47.473-48.658-107.348-5.74c-59.876,42.918-77.695,145.835,1.703,208.404
	c79.399,62.568,140.949,41.645,140.949,41.645L538.93,1338.762z"/>
<g>
	<path style="fill:#FFD7CE;" d="M1035.769,1602.246c0,0,74.042-1078.299,40.95-1139.042
		c-16.317-29.953-531.992-29.046-546.493,12.643c-28.968,83.284,27.782,1153.7,27.782,1153.7L1035.769,1602.246z"/>
	<path style="fill:#FFCABB;" d="M1049.526,880.956H547.391c0,0,1.814-388.118,17.273-396.952
		c44.408-25.376,459.486-28.095,484.862,1.813C1069.88,509.805,1049.526,880.956,1049.526,880.956z"/>
	<polygon style="fill:#FFCABB;" points="1049.526,909.957 552.514,918.87 552.514,1313.254 1029.357,1284.287 	"/>
	<polygon style="fill:#FFCABB;" points="1016.051,1324.129 573.175,1352.446 583.791,1593.146 1011.501,1571.907 	"/>
</g>
<g>
	<path style="fill:#FFD7CE;" d="M1155.102,1602.246c0,0-74.043-1078.299-40.951-1139.042
		c16.317-29.953,531.992-29.046,546.493,12.643c28.969,83.284-27.782,1153.7-27.782,1153.7L1155.102,1602.246z"/>
	<path style="fill:#FFCABB;" d="M1141.343,880.956h502.136c0,0-1.813-388.118-17.273-396.952
		c-44.408-25.376-459.486-28.095-484.862,1.813C1120.989,509.805,1141.343,880.956,1141.343,880.956z"/>
	<polygon style="fill:#FFCABB;" points="1141.343,909.957 1638.355,918.87 1638.355,1313.254 1161.512,1284.287 	"/>
	<polygon style="fill:#FFCABB;" points="1174.818,1324.129 1617.695,1352.446 1607.077,1593.146 1179.368,1571.907 	"/>
</g>
<path style="fill:#1B1464;" d="M803.795,1593.104c0,0-18.303,8.381-20.274,19.227s14.789,21.69,27.607,27.606
	c12.818,5.916,56.199,5.916,57.185,0s-38.452-19.719-42.396-27.606c-3.943-7.888-7.177-7.868-7.177-7.868L803.795,1593.104z"/>
<path style="fill:#1B1464;" d="M1079.581,1585.29c0,0-10.121,16.269-9.062,31.103s12.715,21.191,29.668,21.191
	s52.979,3.179,59.336,0s-15.894-19.072-33.906-25.43s-15.894-11.655-15.894-11.655L1079.581,1585.29z"/>
<path style="fill:#A14F2A;" d="M958,1294c4.34,115.332-46.028,220.103-132,318c-15.808,3.213-25.579-1.63-28.769-15.253
	C833.906,1496.565,879,1333,869,1207L958,1294z"/>
<path style="fill:#A14F2A;" d="M1070.503,1612.144c14.474,10.61,51.497,5.856,45.034-4.49C1127,1501,1125.596,1339.566,1100,1265
	l-95,35C1056,1406,1074.263,1532.563,1070.503,1612.144z"/>
<path style="fill:#FFC371;" d="M881.24,938.958c0,0-25.475,74.15-30.814,187.601C848.751,1162.153,830.632,1284,830.632,1284
	c41.409,31.589,93.46,35.703,150.483,26.972l6.673-53.548l7.5,51.443C1043,1314,1102.55,1277.84,1126,1259l-63.949-273.893
	L881.24,938.958z"/>
<path style="fill:#FFA658;" d="M1002.47,1113.274l-14.682,144.149l7.493,51.392c0.002,0.018,0.005,0.034,0.008,0.052
	c0.795,0.086,1.587,0.15,2.379,0.22c17.107,1.345,35.61-2.412,53.354-8.634C1030.261,1202.721,1002.47,1113.274,1002.47,1113.274z"
	/>
<polygon style="fill:#874223;" points="998.483,676.429 992.767,695.25 1020.344,710.713 980.202,732.69 943.372,716.732 
	952.164,693.793 963.359,689.967 961.335,655.744 988.481,660.622 "/>
<path style="fill:#A14F2A;" d="M947.839,714.616l32.742,17.867l10.116-5.539l13.52-25.273l-11.451-6.42l2.383-7.845
	c-4.419-2.368-16.28-7.833-25.38-3.875c-2.223,0.967-4.411,2.745-6.497,4.972l0.087,1.465l-1.948,0.666
	C953.701,700.078,947.839,714.616,947.839,714.616z"/>
<path style="fill:#A14F2A;" d="M1020.299,639.485c-0.609-31.043-22.418-46.002-38.42-39.594
	c-13.084,5.238-30.646,24.47-26.084,45.162c-2.768,0.053-5.628,1.37-6.494,6.195c-1.829,10.179,6.088,11.602,9.888,9.949
	c1.276-0.555,2.338-1.412,3.192-2.305c4.968,6.565,12.742,12.997,24.183,18.898C1009.604,689.676,1020.759,662.919,1020.299,639.485
	z"/>
<polygon style="fill:#CB1CE6;" points="1177.595,1055.257 1185.301,1279.721 1231.609,1279.721 1231.972,1047.713 "/>
<polygon style="fill:#E847FF;" points="1290.88,1058.588 1290.617,1279.721 1231.972,1279.721 1231.955,1051.338 "/>
<polygon style="fill:#2071F5;" points="1411.416,1055.257 1403.709,1279.721 1357.401,1279.721 1357.039,1047.713 "/>
<polygon style="fill:#E847FF;" points="1479.024,1055.257 1486.731,1279.721 1533.039,1279.721 1533.401,1047.713 "/>
<polygon style="fill:#1B1464;" points="1475.399,1055.257 1467.693,1279.721 1421.385,1279.721 1421.022,1047.713 "/>
<polygon style="fill:#CB1CE6;" points="1295.412,1058.588 1295.675,1279.721 1354.32,1279.721 1354.337,1051.338 "/>
<path style="fill:#A14F2A;" d="M1264.473,699.908c-11.463,1.017-25.145,20.092-25.145,20.092l0.4,1.607l-0.507-1.97
	c-52.505,31.616-121.498,36.869-154.975,19.032v84.285c51.612,4.8,93.461-14.941,151.35-75.222c0,0,7.251-0.906,13.595-1.813
	c2.966-0.424,22.859-15.179,19.938-20.565c-3.081-5.681-11.896,9.142-11.896,9.142s-2.623-2.522,1.963-10.927
	c4.587-8.404,19.921-13.852,22.919-18.013C1285.112,701.396,1275.935,698.891,1264.473,699.908z"/>
<path style="fill:#46255F;" d="M957.762,691.88c0,0,8.638,26.654,24.357,23.641c15.72-3.013,13.054-18.921,13.054-18.921
	s45.144,2.325,72.762,23.038c18.125,13.594,28.095,18.125,59.814,25.376c-1.755,37.275-8.661,66.155-19.938,87.909
	c-6.344,0-16.313-1.813-19.365-3.653c-4.198,86.126,1.24,118.752-4.198,169.503c-41.562,16.203-162.225-10.875-220.227-30.813
	l18.482-113.885c0,0-26.589-33.966-15.27-77.467c11.318-43.501,35.016-64.929,52.68-72.263
	C937.575,697.01,957.762,691.88,957.762,691.88z"/>
<path style="fill:#2F0E54;" d="M1084.247,998.773c0.64-5.964,1.127-11.677,1.499-17.257c-21.161-6.336-43.734-15.531-50.438-27.151
	c-13.594-23.563-4.531-68.878-4.531-68.878L910.24,870.081c-4.618,1.603-8.684,2.407-11.781,1.813
	c-7.539-5.409-10.743-11.515-15.973-17.719l-18.466,113.786C922.023,987.898,1042.686,1014.976,1084.247,998.773z"/>
<path style="fill:#1B1464;" d="M953.742,599.102c11.782-57.096,49.08-45.965,58.886-40.389c16.155,9.184,11.842,38.193-3.62,49.064
	c-1.766,1.247-3.684,2.246-5.728,2.964c-19.926,6.928-35.526-0.86-35.526-0.86c-8.488,8.773-14.937,21.66-11.957,35.167
	c-2.767,0.064-5.629,1.371-6.496,6.2c-1.829,10.179,6.088,11.602,9.888,9.949c1.278-0.553,2.343-1.412,3.193-2.31
	c0.896,1.188,1.898,2.373,2.983,3.548l0,0c-0.121,2.683-2.159,4.896-4.827,5.205c-2.305,0.267-5.271,0.499-8.427,0.459
	c-6.989-0.088-20.677-8.386-18.759-25.554c0.275-2.475,0.774-4.663,1.452-6.693C935.007,633.774,952.211,606.526,953.742,599.102z"
	/>
<path style="fill:#FFA658;" d="M1271.848,1271.564v125.067l347.107-23.563c0,0,17.219-96.973,0-104.223
	C1601.735,1261.596,1271.848,1271.564,1271.848,1271.564z"/>
<polygon style="fill:#CB1CE6;" points="1607.173,1190.905 1573.641,1225.344 1708.677,1362.192 1742.365,1310.424 "/>
<polygon style="fill:#FF2E57;" points="1279.555,1194.53 1290.756,1279.019 1338.007,1273.453 1338.007,1194.53 "/>
<path style="fill:#665F70;" d="M1834.65,1123.84c-6.84-3.039-408.16-32.846-537.557-42.39c1.624-21.882,3.909-77.991-13.464-95.365
	c-21.751-21.751-111.474-61.627-111.474-61.627l-16.313,8.156c0,0,122.348,55.283,125.067,79.753
	c1.987,17.883,1.069,51.252,0.433,67.922c-15.281-1.125-23.996-1.763-23.996-1.763s0-58.003-15.407-75.222
	c-15.406-17.22-131.846-64.347-131.846-64.347l-25.47,5.443c0,0,149.159,45.309,151.878,89.717
	c2.659,43.435,33.929,349.562,35.298,362.958l-0.405,0.009c-48.835,88.633-74.136,171.728-67.972,247.415h442.267v-25.376
	l-416.891,8.157c-3.487-78.139,26.728-154.728,68.73-230.775h-0.004c108.136-4.475,521.167-22.898,523.529-43.376
	C1823.775,1329.566,1842.807,1127.465,1834.65,1123.84z M1286.349,1378.506l-27.188-282.761l83.262,6.115l16.218,272.289
	L1286.349,1378.506z M1373.164,1373.274l-14.4-270.214l83.273,6.116l10.203,259.332L1373.164,1373.274z M1542.374,1363.077
	l-78.16,4.71l-5.063-257.354l83.223,6.112V1363.077z M1628.83,1357.867l-72.862,4.391v-244.713l80.423,5.906L1628.83,1357.867z
	 M1645.262,1356.877l9.15-232.102l87.953,6.46l-23.195,221.188L1645.262,1356.877z M1805.195,1347.239l-73.766,4.445l26.052-219.339
	l63.122,4.636L1805.195,1347.239z"/>
<path style="fill:#1B1464;" d="M1289.521,1676.221c-6.344,27.188-19.03,37.157-35.798,37.157s-30.152-17.981-24.923-37.157
	c8.156-29.908,19.03-37.158,35.798-37.158S1294.184,1656.235,1289.521,1676.221z"/>
<path style="fill:#1B1464;" d="M1617.596,1676.221c-6.345,27.188-19.031,37.157-35.799,37.157s-30.152-17.981-24.923-37.157
	c8.157-29.908,19.031-37.158,35.799-37.158S1622.258,1656.235,1617.596,1676.221z"/>
<path style="fill:#1B1464;" d="M1139.68,933.375c3.496,6.969-0.689,12.958-8.883,16.831c-8.193,3.874-52.075,26.829-61.516,13.648
	c-9.439-13.18,43.355-32.913,48.201-35.022C1128.125,924.202,1137.189,928.41,1139.68,933.375z"/>
<path style="fill:#1B1464;" d="M1131.256,937.184c2.418,7.412,9.606,8.723,18.154,5.711c8.548-3.011,55.882-17.573,53.317-33.581
	c-2.564-16.008-53.966,7.114-58.894,9.025C1133.014,922.536,1129.532,931.904,1131.256,937.184z"/>
<path style="fill:#A14F2A;" d="M969.514,822.966c32.15,45.099,107.591,66.992,148.677,80.44
	c13.696,4.483,25.896,5.863,30.503,17.409c10.811,27.089-14.21,27.323-14.21,27.323c0.517-9.139-6.618-23.909-25.597-15.777
	c0,0-0.726-3.127-0.235-4.588c1.864-5.556,3.495-5.256,3.495-5.256s-85.81,22.133-131.435,4.47
	c-45.624-17.663-70.448-56.779-70.448-56.779C931.336,861.243,950.877,844.425,969.514,822.966z"/>
<path style="fill:#46255F;" d="M589.119,948.021c0,0-37.164,26.015-44.597,83C537.09,1088.006,535.894,1206.327,503,1241
	c-45.836,48.313-94,191-72.447,244.66l9.91,17.343L588.5,1320.28c-2.515,89.473,6.785,237.138,21.678,331.378l22.299-12.388
	c0,0,65.822,47.001,93.523-462.271c4.525-83.203,7.951-189.227-5-223c-24.25-63.238-76.135-5.979-76.135-5.979H589.119z"/>
<path style="fill:#2F0E54;" d="M588.44,1322.598c53.542-72.784,65.323-291.198,65.323-291.198S664.184,1182.016,659,1309
	c-6,147-36.442,303.095-39.907,337.706l-8.915,4.952C595.412,1558.224,586.146,1412.283,588.44,1322.598z"/>
<path style="fill:#1B1464;" d="M632.477,1639.271c0,0,42.119,6.194,49.553,16.104c7.432,9.91-21.06,14.865-42.12,9.91
	c-21.06-4.955-29.732-13.627-29.732-13.627L632.477,1639.271z"/>
<path style="fill:#1B1464;" d="M430.553,1485.66c0,0-23.553-5.66-28.553,13.34c-2.82,10.715,18.612,79.238,31,78
	c12.389-1.238,7.463-73.997,7.463-73.997L430.553,1485.66z"/>
<polygon style="fill:#F2A374;" points="672.641,690.611 667.099,712.372 699.352,728.574 654.714,755.72 611.885,739.434 
	620.72,712.818 633.288,707.873 629.203,668.951 660.412,673.104 "/>
<path style="fill:#F2BC9C;" d="M640.265,700.199c8.248-4.043,20.82,3.244,28.033,7.461l-1.199,4.711l13.392,6.728l-14.106,29.523
	l-11.249,6.841l-38.267-18.675c0,0,5.931-16.884,14.233-28.055l2.186-0.86l-0.175-1.667
	C635.376,703.559,637.779,701.417,640.265,700.199z"/>
<path style="fill:#F2BC9C;" d="M688.313,662.995c6.342-37.261-18.359-46.217-33.819-39.195
	c-12.639,5.741-29.059,25.452-23.642,45.608c-2.722,0.176-6.272,1.561-6.113,6.387c0.152,4.642,6.511,11.144,10.176,9.347
	c1.23-0.604,2.237-1.495,3.038-2.411c5.183,6.237,6.336,9.059,17.857,14.354C679.014,707.748,684.44,685.754,688.313,662.995z"/>
<path style="fill:#FFA658;" d="M681.544,630.344c-1.681,1.307-3.524,2.375-5.504,3.173c-19.297,7.71-34.996,0.745-34.996,0.745
	c-7.959,9.013-13.727,21.982-10.19,35.14c-2.72,0.186-2.982-0.138-2.791,4.692c0.152,3.849,3.187,12.844,6.852,11.047
	c1.233-0.601,2.242-1.494,3.039-2.416c0.935,1.129,1.973,2.25,3.094,3.357l0,0c0.001,2.645-1.907,4.915-4.517,5.337
	c-2.256,0.366-5.165,0.727-8.271,0.829c-6.882,0.227-10.046-11.674-14.749-20.773c-3.27-6.324-15.562-8.235-10.33-40.105
	c5.071-30.895,61.639-56.616,81.963-54.789C690.358,577.051,696.271,618.955,681.544,630.344z"/>
<path style="fill:#F2BC9C;" d="M676.437,762.61c12.969,60.302,49.295,116.524,104.315,168.352c0,0,28.92,11.361,32.018,27.887
	c3.099,16.525-4.132,16.525-10.328,16.525c-6.197,0-22.723-24.788-25.821-22.723c-3.099,2.066,2.065,16.525-3.099,14.46
	c-5.164-2.066-8.263-23.755-8.263-23.755c-79.527-46.478-96.725-83.079-120.841-162.154L676.437,762.61z"/>
<path style="fill:#FFFFFF;" d="M781.271,955.508l-17.045,9.537c0,0,29.953,23.755,32.018,42.347
	c2.065,18.591-4.132,50.608-4.132,50.608l59.904-11.361c0,0,8.263-48.543-9.295-71.265c-17.559-22.723-29.952-28.919-29.952-28.919
	L781.271,955.508z"/>
<path style="fill:#F2BC9C;" d="M812.771,958.848c-3.099-16.525-32.018-27.887-32.018-27.887c-3.365-3.17-6.659-6.358-9.884-9.561
	c-0.091,1.286-0.193,2.571-0.321,3.854c-0.572,5.752-1.5,11.989-3.324,17.866c1.225,1.69,2.459,3.374,3.718,5.039
	c1.56,2.063,3.163,4.095,4.799,6.101c0.158-0.738,0.431-1.307,0.882-1.608c3.099-2.065,19.624,22.723,25.821,22.723
	C808.639,975.373,815.869,975.373,812.771,958.848z"/>
<path style="fill:#FF5862;" d="M624.733,711.239c0,0,28.698,34.998,39.004,27.863c10.306-7.135,11.773-22.504,11.773-22.504
	s49.271,2.684,56.406,94.647C739.051,903.206,727,978,727,978c-26.162,30.126-120.739,34.214-177.819,19.151
	C520.027,979.042,518.034,933.139,535,850c0.496-2.429-5.383-4.486-5-7C537,797,557,719,624.733,711.239z"/>
<path style="fill:#665F70;" d="M574.608,1056.775c0,0-8.157,0-8.157,8.156s10.875,11.781,10.875,11.781s27.189,11.782,37.158,45.314
	c9.969,33.533,7.25,61.628,7.25,61.628l7.251,3.625c0,0,6.344-49.846-9.97-84.284
	C602.703,1068.557,574.608,1056.775,574.608,1056.775z"/>
<path style="fill:#F2BC9C;" d="M539.697,851.917c8.896,5.294,42.478,14.149,53.303,14.083
	c-16.313,68.877-32.816,108.47-27.271,170.28c0,0,13.718,17.776,10.999,30.464c-2.719,12.688-18.126,15.407-21.751,14.501
	s-7.25-4.532-7.25-4.532s7.25-8.156,7.25-11.781s-4.531-8.156-4.531-8.156l1.253-5.954c1.496-7.104,0.782-14.511-2.135-21.158
	C516.917,955.237,527.417,912.75,539.697,851.917z"/>
<path style="fill:#665F70;" d="M550.446,1056.775c0,0,8.156,0,8.156,8.156s-10.875,11.781-10.875,11.781
	s-27.188,11.782-37.157,45.314c-9.97,33.533-7.251,61.628-7.251,61.628l-7.25,3.625c0,0-6.345-49.846,9.969-84.284
	C522.352,1068.557,550.446,1056.775,550.446,1056.775z"/>
<path style="fill:#FFA658;" d="M492.608,1236.093c9.733,9.182,13.579,26.631,2.845,36.546c-10.735,9.915-35.593,18.102-44.728,3.169
	c-9.137-14.933-11.102-39.591-3.967-44.956C453.891,1225.487,478.346,1222.64,492.608,1236.093z"/>
<path style="fill:#FFA658;" d="M512.767,1273.734c6.412-11.745,22.315-19.892,34.629-12.022
	c12.313,7.869,26.538,29.838,14.411,42.463c-12.127,12.624-35.48,20.779-42.479,15.239
	C512.328,1313.875,503.371,1290.942,512.767,1273.734z"/>
<path style="fill:#FF2E57;" d="M630.496,1282.51c4.625-8.469,16.093-14.344,24.973-8.669c8.88,5.675,19.137,21.517,10.392,30.62
	c-8.745,9.104-25.586,14.984-30.633,10.99C630.181,1311.456,623.721,1294.919,630.496,1282.51z"/>
<path style="fill:#FF5862;" d="M622.097,1279.502c9.476,1.823,18.564,10.956,15.866,21.143
	c-2.699,10.187-14.662,24.783-25.998,19.228c-11.336-5.555-14.846-19.626-12.579-25.65S608.213,1276.83,622.097,1279.502z"/>
<path style="fill:#FFC371;" d="M476.131,1260.689c11.134-7.423,29.001-7.251,36.252,5.438c7.25,12.688,9.643,38.749-6.961,44.297
	c-16.603,5.549-41.072,1.924-44.697-6.233C457.1,1296.034,459.818,1271.564,476.131,1260.689z"/>
<path style="fill:#665F70;" d="M427.422,1177.343c-2.806,4.21,20.349,141.033,29.47,143.84c9.122,2.807,205.586,4.912,211.9,0
	c6.315-4.911,26.663-143.84,26.663-143.84H427.422z M537.408,1190.756h43.904l-9.07,119.467c-11.835-0.122-23.858-0.29-35.347-0.476
	L537.408,1190.756z M530.844,1309.647c-12.609-0.214-24.388-0.444-34.327-0.651l-7.939-118.24h39.323L530.844,1309.647z
	 M440.602,1190.756h38.481l11.384,118.111c-14.519-0.313-23.828-0.547-23.828-0.547L440.602,1190.756z M578.337,1310.281
	l12.576-119.525h39.139l-9.082,119.621C608.349,1310.471,593.609,1310.419,578.337,1310.281z M659.16,1308.32
	c-1.186,1.186-13.844,1.777-32.157,1.998l12.58-119.563h40.881C680.464,1190.756,663.894,1303.586,659.16,1308.32z"/>
<polygon style="fill:#2071F5;" points="1271.848,712.608 1279.555,880.956 1325.863,880.956 1326.225,706.95 "/>
<polygon style="fill:#3FA9F5;" points="1385.134,715.106 1384.87,880.956 1326.225,880.956 1326.208,709.669 "/>
<polygon style="fill:#3FA9F5;" points="1505.67,712.608 1497.963,880.956 1451.654,880.956 1451.292,706.95 "/>
<polygon style="fill:#3FA9F5;" points="1573.277,712.608 1580.984,880.956 1627.293,880.956 1627.655,706.95 "/>
<polygon style="fill:#2071F5;" points="1569.653,712.608 1561.946,880.956 1515.639,880.956 1515.276,706.95 "/>
<polygon style="fill:#2071F5;" points="1389.665,715.106 1389.928,880.956 1448.573,880.956 1448.59,709.669 "/>
<polygon style="fill:#FF2E57;" points="1501.139,1421.102 1501.139,1579.701 1587.234,1579.701 1596.298,1421.102 "/>
<rect x="1392.384" y="1421.102" style="fill:#FF5862;" width="91.534" height="158.6"/>
<g>
	<path style="fill:#35105F;" d="M869,1044c3.854,3.016,8.096,5.453,12.606,7.116c4.498,1.697,9.234,2.639,13.991,2.944
		c4.761,0.271,9.551-0.041,14.227-0.975c4.679-0.901,9.261-2.332,13.627-4.26c4.388-1.88,8.567-4.249,12.479-7
		c3.935-2.722,7.551-5.896,10.879-9.35c6.621-6.952,11.828-15.285,15.191-24.477c-2.159,9.558-6.937,18.571-13.459,26.051
		c-3.237,3.77-6.961,7.115-10.957,10.084c-4.022,2.938-8.372,5.431-12.938,7.441c-4.587,1.961-9.388,3.449-14.314,4.297
		c-4.925,0.815-9.966,1.076-14.934,0.512c-4.967-0.523-9.848-1.839-14.358-3.918C876.541,1050.367,872.414,1047.512,869,1044z"/>
</g>
</svg>
